<?xml version="1.0" encoding="iso-8859-1"?>
<!-- Generator: Adobe Illustrator 19.0.0, SVG Export Plug-In . SVG Version: 6.00 Build 0)  -->
<svg version="1.1" id="Capa_1" xmlns="http://www.w3.org/2000/svg" xmlns:xlink="http://www.w3.org/1999/xlink" x="0px" y="0px"
	 viewBox="0 0 512.086 512.086" style="enable-background:new 0 0 512.086 512.086;" xml:space="preserve">
<path style="fill:#F44336;" d="M279.188,459.84c10.312-12.601,17.047-27.743,19.499-43.84c0-19.733-16.363-32-42.667-32
	s-42.667,12.267-42.667,32c2.452,16.097,9.187,31.239,19.499,43.84l-18.368,36.736c-2.627,5.273-0.483,11.677,4.79,14.304
	c1.474,0.735,3.099,1.118,4.746,1.12h64c5.891,0,10.667-4.776,10.666-10.667c0-1.659-0.387-3.295-1.13-4.778L279.188,459.84z"/>
<path style="fill:#FFE082;" d="M401.087,175.509c-1.592-4.608-6.106-7.55-10.965-7.147l-20.523,1.707
	c-3.957-10.034-6.291-20.634-6.912-31.403c0-5.891-4.776-10.667-10.667-10.667c-62.699,0-116.139-42.667-117.333-53.333
	c0-5.891-4.776-10.667-10.667-10.667s-10.667,4.776-10.667,10.667c0.523,7.698-2.156,15.271-7.403,20.928
	c-12.584,8.731-27.881,12.659-43.115,11.072c-5.532-0.472-10.991,1.509-14.933,5.419c-8.955,17.627-12.39,37.544-9.856,57.152
	c-9.28-0.896-23.765-3.456-27.136,6.272c-2.881,8.761-4.308,17.935-4.224,27.157c0,29.76,13.163,52.352,30.827,53.333
	c19.328,64.213,65.941,106.667,118.507,106.667S355.199,320.213,374.527,256c17.664-0.96,30.827-23.467,30.827-53.333
	C405.423,193.442,403.982,184.268,401.087,175.509z"/>
<g>
	<path style="fill:#455A64;" d="M224.02,213.333h-21.333c-5.891,0-10.667-4.776-10.667-10.667S196.796,192,202.687,192h21.333
		c5.891,0,10.667,4.776,10.667,10.667S229.911,213.333,224.02,213.333z"/>
	<path style="fill:#455A64;" d="M309.353,213.333H288.02c-5.891,0-10.667-4.776-10.667-10.667S282.129,192,288.02,192h21.333
		c5.891,0,10.667,4.776,10.667,10.667S315.244,213.333,309.353,213.333z"/>
	<path style="fill:#455A64;" d="M233.833,497.067l-64-149.333c-1.157-2.706-3.38-4.813-6.144-5.824
		c-2.788-1.024-5.875-0.854-8.533,0.469L44.82,397.717c-13.868,6.956-24.001,19.629-27.733,34.688l-16.64,66.347
		c-1.426,5.716,2.052,11.505,7.768,12.931c0.809,0.202,1.639,0.308,2.472,0.317H224.02c5.891,0.021,10.683-4.738,10.704-10.629
		C234.729,499.89,234.426,498.424,233.833,497.067z"/>
	<path style="fill:#455A64;" d="M511.7,498.731l-16.64-66.325c-3.733-15.059-13.865-27.732-27.733-34.688L356.82,342.464
		c-2.659-1.324-5.745-1.493-8.533-0.469c-2.764,1.011-4.987,3.118-6.144,5.824l-64,149.333c-2.356,5.399,0.11,11.686,5.509,14.043
		c1.357,0.592,2.823,0.896,4.304,0.891h213.333c5.891,0.001,10.668-4.773,10.669-10.664c0-0.878-0.108-1.753-0.322-2.605
		L511.7,498.731z"/>
	<path style="fill:#455A64;" d="M256.02,0c-82.436,0.094-149.239,66.898-149.333,149.333c0.105,10.778,1.407,21.51,3.883,32
		c1.08,4.884,5.409,8.361,10.411,8.363c8.96,0.15,17.902,0.863,26.773,2.133c5.822,0.898,11.27-3.094,12.168-8.916
		c0.121-0.784,0.154-1.578,0.099-2.369c-1.975-17.549-1.03-35.304,2.795-52.544c20.912,1.966,41.774-4.234,58.219-17.301
		c2.768-2.763,5.164-5.875,7.125-9.259c31.833,27.806,71.849,44.497,114.005,47.552c2.089,12.595,5.707,24.889,10.773,36.608
		c1.693,3.878,5.518,6.389,9.749,6.4h0.875l28.373-2.347c4.664-0.387,8.532-3.77,9.536-8.341
		c2.474-10.483,3.776-21.208,3.883-31.979C405.259,66.898,338.456,0.094,256.02,0z"/>
</g>
<g>
</g>
<g>
</g>
<g>
</g>
<g>
</g>
<g>
</g>
<g>
</g>
<g>
</g>
<g>
</g>
<g>
</g>
<g>
</g>
<g>
</g>
<g>
</g>
<g>
</g>
<g>
</g>
<g>
</g>
</svg>
